<svg width="62" height="62" viewBox="0 0 62 62" fill="none" xmlns="http://www.w3.org/2000/svg">
<mask id="mask0" mask-type="alpha" maskUnits="userSpaceOnUse" x="0" y="0" width="62" height="62">
<path d="M31 62C48.1208 62 62 48.1208 62 31C62 13.8792 48.1208 0 31 0C13.8792 0 0 13.8792 0 31C0 48.1208 13.8792 62 31 62Z" fill="white"/>
</mask>
<g mask="url(#mask0)">
<path d="M31 61.5C47.8447 61.5 61.5 47.8447 61.5 31C61.5 14.1553 47.8447 0.5 31 0.5C14.1553 0.5 0.5 14.1553 0.5 31C0.5 47.8447 14.1553 61.5 31 61.5Z" fill="white" stroke="#E5E5E5"/>
<path fill-rule="evenodd" clip-rule="evenodd" d="M34.989 36.985H42.184V25.157H34.989V36.985Z" fill="#1E1E1E"/>
<path fill-rule="evenodd" clip-rule="evenodd" d="M9 36.985H34.99V25.157H9V36.985Z" fill="#1E9D89"/>
<path fill-rule="evenodd" clip-rule="evenodd" d="M42.184 36.985H52.947V25.157H42.184V36.985Z" fill="#D89429"/>
<path fill-rule="evenodd" clip-rule="evenodd" d="M17.337 33.402H14.477V32.177H14.016V33.804H17.337V33.402V33.402ZM15.452 31.449C15.652 31.249 15.754 31.017 15.754 30.754C15.7552 30.6223 15.7293 30.4917 15.6778 30.3704C15.6264 30.2491 15.5505 30.1397 15.455 30.049C15.256 29.851 14.971 29.752 14.599 29.752C14.231 29.752 13.945 29.852 13.74 30.049C13.6425 30.1386 13.5649 30.2476 13.5122 30.369C13.4595 30.4905 13.4328 30.6216 13.434 30.754C13.434 31.017 13.534 31.249 13.737 31.449C13.94 31.649 14.225 31.749 14.593 31.749C14.965 31.749 15.251 31.649 15.452 31.449V31.449ZM17.242 28.139H16.782V29.644H16.059V30.052H16.781V30.797H16.06V31.205H16.782V32.6H17.242V28.139ZM13.219 29.397H15.968V29.014H13.219V29.396V29.397ZM13.867 28.56H15.297V28.178H13.867V28.56ZM15.134 31.182C15.016 31.305 14.838 31.367 14.599 31.367C14.357 31.367 14.176 31.304 14.059 31.178C13.9458 31.0609 13.8827 30.9043 13.8833 30.7414C13.8839 30.5785 13.948 30.4223 14.062 30.306C14.181 30.178 14.36 30.115 14.599 30.115C14.838 30.115 15.016 30.178 15.134 30.306C15.2476 30.4235 15.3112 30.5805 15.3112 30.744C15.3112 30.9075 15.2476 31.0645 15.134 31.182V31.182ZM24.847 33.936H24.392V30.866H23.782V33.672H23.327V28.27H23.782V30.438H24.392V28.138H24.847V33.936ZM23.062 32.491C22.5266 32.5548 21.9881 32.5885 21.449 32.592H21.061V28.67H22.691V29.084H21.527V32.169L22.212 32.156C22.4961 32.1405 22.7796 32.1154 23.062 32.081V32.49V32.491Z" fill="white"/>
<mask id="mask1" mask-type="alpha" maskUnits="userSpaceOnUse" x="9" y="25" width="44" height="12">
<path d="M9 36.984H52.947V25.156H9V36.984Z" fill="white"/>
</mask>
<g mask="url(#mask1)">
<path fill-rule="evenodd" clip-rule="evenodd" d="M29.381 33.475H31.687V32.645H29.381V33.475ZM28.909 33.863H32.154V32.263H28.91V33.863H28.909ZM32.762 31.417H30.77V30.985C31.127 30.967 31.45 30.892 31.698 30.76C31.946 30.629 32.069 30.457 32.069 30.245C32.069 30.015 31.927 29.833 31.641 29.702C31.356 29.57 30.985 29.505 30.531 29.505C30.081 29.505 29.713 29.57 29.427 29.702C29.142 29.833 28.999 30.015 28.999 30.245C28.999 30.457 29.121 30.629 29.365 30.76C29.609 30.892 29.93 30.967 30.287 30.985V31.417H28.3V31.813H32.76V31.417H32.762ZM28.7 29.206H32.361V28.818H28.7V29.206ZM29.624 28.482H31.432V28.092H29.624V28.482ZM31.264 30.522C31.0239 30.5812 30.7772 30.6091 30.53 30.605C30.248 30.605 30.003 30.577 29.795 30.522C29.585 30.467 29.481 30.374 29.481 30.245C29.481 30.111 29.586 30.017 29.795 29.961C30.003 29.906 30.248 29.878 30.53 29.878C30.812 29.878 31.056 29.906 31.264 29.961C31.471 30.017 31.574 30.111 31.574 30.245C31.574 30.375 31.471 30.467 31.264 30.522V30.522ZM38.54 29.529C39.09 30.742 40.304 31.256 40.304 31.256L40.542 30.904C40.542 30.904 38.805 30.15 38.805 28.28H38.275C38.275 30.15 36.539 30.904 36.539 30.904L36.777 31.256C36.777 31.256 37.99 30.742 38.54 29.529ZM39.515 32.894V31.344H39.034V32.894H38.081V31.344H37.605V32.894H36.31V33.302H40.77V32.894H39.515ZM48.335 32.127C48.044 31.914 47.626 31.808 47.082 31.808C46.542 31.808 46.122 31.914 45.826 32.128C45.529 32.34 45.381 32.609 45.381 32.935C45.381 33.255 45.529 33.521 45.826 33.732C46.123 33.942 46.541 34.048 47.082 34.048C47.626 34.048 48.044 33.942 48.335 33.732C48.625 33.521 48.772 33.255 48.772 32.935C48.772 32.609 48.626 32.34 48.335 32.127V32.127ZM47.854 30.789C47.737 30.807 47.134 30.815 47.037 30.824L47.078 29.239H46.623L46.57 30.837C46.484 30.842 46.36 30.844 46.237 30.844C46.115 30.844 45.917 30.846 45.767 30.851L45.715 29.239H45.26L45.306 30.851H44.655V31.259L46.618 31.246C47.124 31.246 47.662 31.216 47.854 31.185V30.789ZM48.244 31.702H48.704V28.139H48.244V31.702ZM44.779 28.962H47.536V28.554H44.779V28.962ZM47.953 33.458C47.725 33.592 47.435 33.659 47.082 33.659C46.725 33.659 46.431 33.591 46.198 33.455C45.966 33.319 45.851 33.141 45.851 32.921C45.851 32.697 45.966 32.521 46.198 32.394C46.431 32.267 46.725 32.203 47.082 32.203C47.435 32.203 47.725 32.268 47.953 32.398C48.182 32.528 48.296 32.706 48.296 32.935C48.296 33.15 48.182 33.325 47.953 33.458Z" fill="white"/>
</g>
</g>
</svg>
