<svg xmlns="http://www.w3.org/2000/svg" width="108" height="20" fill="none" viewBox="0 0 108 20">
    <path fill="#fff" d="M16.643 5.633c-4.14 0-6.62 2.468-6.62 5.514 0 3.042 2.48 5.51 6.62 5.51 4.143 0 6.626-2.468 6.626-5.51 0-3.046-2.483-5.514-6.626-5.514zm0 9.84c-1.914 0-3.369-1.94-3.369-4.326 0-2.387 1.455-4.33 3.37-4.33 1.913 0 3.368 1.943 3.368 4.33 0 2.386-1.455 4.326-3.369 4.326zM34.967 6.038h-11.58V7.26h4.144v8.947h3.288V7.26h4.148V6.038zM47.593 6.038H36.014V7.26h4.146v8.947h3.282V7.26h4.151V6.038zM52.9 7.235h5.465v-1.2h-8.182c-.737.032-1.545.31-1.545 1.627v6.907c0 1.32.805 1.6 1.545 1.627h8.182v-1.199H52.9c-.695-.042-.985-.335-.985-1.137v-2.752h6.358V9.916h-6.358V8.372c0-.805.29-1.095.985-1.137zM5.366 14.982c-.695-.042-.985-.315-.985-1.12V6.04H1.105v8.531c0 1.32.805 1.599 1.542 1.63h7.437v-1.219H5.366zM107.297 8.389V6.064h-2.505V3.308l-3.476-.008v2.764h-2.227c-1.73 0-2.73.723-3.24 1.275V6.067h-3.531v2.629c.002.222.002.456.002.709l-.002.625v6.175h3.53v-5.117l.002-.034c0-.256.02-.475.062-.672 0 0 .481-1.99 3.177-1.99h2.227v4.168c0 1.43.329 2.406.982 3.009.51.453 1.309.782 2.274.855v.006h2.725v-2.57h-1.227c-.952-.042-1.278-.605-1.278-1.778V8.389h2.505zM90.823 13.767v-3.546c0-.127-.002-.25-.005-.377-.127-2.215-1.385-4.002-4.988-4.002-2.074 0-3.642.517-4.433.914l.653 2.007c.746-.388 1.985-.74 3.153-.74 1.75 0 2.077.768 2.077 1.306v.124c-4.036 0-6.702 1.244-6.702 3.881 0 1.618 1.377 3.113 3.688 3.113 1.269 0 2.367-.383 3.115-1.092v.85h3.45v-1.838c-.005-.197-.008-.4-.008-.6zm-3.425-1.325c0 .191-.025.374-.07.54-.234.648-.985 1.165-1.852 1.165-.794 0-1.402-.396-1.402-1.204 0-1.208 1.45-1.602 3.324-1.602v1.1zM77.926 3.308H73.932l-2.826 7.757-2.665-7.757h-3.997l-1.826 12.896H65.463l1.115-7.695 2.634 7.695H71.816l2.817-7.818 1.084 7.819h3.957L77.926 3.307z"/>
</svg>
