<svg xmlns="http://www.w3.org/2000/svg" width="87" height="17" fill="none" viewBox="0 0 87 17">
    <path fill="#fff" d="M13.28 4.587c-3.353 0-5.361 2-5.361 4.466 0 2.464 2.008 4.463 5.361 4.463 3.355 0 5.366-2 5.366-4.463 0-2.467-2.01-4.466-5.366-4.466zm0 7.969c-1.55 0-2.728-1.57-2.728-3.503s1.178-3.506 2.728-3.506c1.55 0 2.729 1.573 2.729 3.506 0 1.932-1.179 3.503-2.729 3.503zM28.12 4.916h-9.378v.989h3.355v7.246h2.662V5.905h3.36v-.99zM38.344 4.916h-9.377v.989h3.358v7.246h2.657V5.905h3.362v-.99zM42.642 5.884h4.426v-.97h-6.626c-.597.025-1.252.25-1.252 1.317v5.594c0 1.069.652 1.294 1.252 1.317h6.626v-.97h-4.426c-.564-.035-.798-.272-.798-.922V9.02h5.149v-.963h-5.15V6.805c0-.652.235-.886.798-.92zM4.147 12.16c-.563-.034-.798-.256-.798-.908V4.918H.696v6.909c0 1.069.651 1.295 1.249 1.32h6.022v-.987h-3.82zM86.696 6.819V4.936h-2.029V2.704l-2.815-.006v2.238h-1.803c-1.402 0-2.211.586-2.624 1.032v-1.03H74.565v2.13c.002.18.002.368.002.574l-.002.506v5h2.858V9.006l.002-.028c0-.207.016-.385.05-.544 0 0 .39-1.612 2.574-1.612h1.803v3.376c0 1.158.267 1.949.795 2.437.413.366 1.06.633 1.842.692v.005h2.207V11.25h-.994c-.77-.034-1.035-.49-1.035-1.44V6.818h2.029zM73.354 11.175V8.303c0-.103-.002-.203-.004-.306-.103-1.794-1.122-3.241-4.04-3.241-1.68 0-2.949.42-3.59.74l.53 1.626c.604-.315 1.606-.6 2.552-.6 1.418 0 1.683.623 1.683 1.058v.1c-3.269 0-5.428 1.008-5.428 3.144 0 1.31 1.115 2.52 2.986 2.52 1.028 0 1.917-.31 2.524-.884v.689h2.794V11.66c-.004-.16-.007-.324-.007-.485zM70.58 10.1c0 .155-.02.303-.057.438-.189.524-.797.943-1.5.943-.642 0-1.135-.321-1.135-.975 0-.978 1.174-1.297 2.692-1.297v.891zM62.91 2.704h-3.234l-2.29 6.282-2.158-6.282h-3.237l-1.479 10.444h2.304l.903-6.232 2.134 6.232h2.108l2.282-6.332.877 6.332h3.205L62.91 2.704z"/>
</svg>
