<svg width="154" height="47" viewBox="0 0 154 47" xmlns="http://www.w3.org/2000/svg">
    <g fill="none" fill-rule="evenodd">
        <rect fill="#FFF" fill-rule="nonzero" width="154" height="46.345" rx="14"/>
        <g fill="#FF359C">
            <path d="M40.558 22.85c-.026-2.847 2.323-4.23 2.43-4.296-1.33-1.946-3.392-2.212-4.116-2.232-1.731-.183-3.41 1.04-4.293 1.04-.9 0-2.257-1.022-3.72-.992-1.884.03-3.647 1.124-4.614 2.822-1.994 3.464-.507 8.554 1.404 11.354.956 1.372 2.073 2.903 3.535 2.849 1.43-.06 1.965-.915 3.69-.915 1.712 0 2.213.915 3.704.88 1.535-.024 2.502-1.377 3.424-2.762 1.105-1.571 1.549-3.119 1.566-3.198-.036-.013-2.981-1.14-3.01-4.55M37.74 14.48c.77-.965 1.296-2.278 1.15-3.611-1.113.05-2.505.773-3.308 1.717-.71.832-1.343 2.196-1.18 3.477 1.252.094 2.536-.633 3.339-1.583"/>
            <g>
                <path d="M54.327 23.404h3.953l-1.949-5.758h-.054l-1.95 5.758zm4.47 1.637h-4.986l-1.198 3.547H50.5l4.725-13.125h2.195l4.723 13.125h-2.148l-1.197-3.547zM70.333 23.804c0-1.937-.998-3.21-2.522-3.21-1.496 0-2.502 1.3-2.502 3.21 0 1.928 1.006 3.22 2.502 3.22 1.524 0 2.522-1.264 2.522-3.22m2.012 0c0 2.974-1.586 4.885-3.98 4.885-1.36 0-2.44-.61-3.002-1.675h-.046v4.74H63.36V19.019h1.895v1.592h.036c.544-1.027 1.705-1.692 3.038-1.692 2.421 0 4.016 1.92 4.016 4.885M80.833 23.804c0-1.937-.998-3.21-2.522-3.21-1.496 0-2.502 1.3-2.502 3.21 0 1.928 1.006 3.22 2.502 3.22 1.524 0 2.522-1.264 2.522-3.22m2.012 0c0 2.974-1.587 4.885-3.98 4.885-1.36 0-2.44-.61-3.002-1.675h-.046v4.74H73.86V19.019h1.896v1.592h.036c.544-1.027 1.705-1.692 3.038-1.692 2.421 0 4.016 1.92 4.016 4.885M89.785 24.932c.145 1.3 1.406 2.156 3.128 2.156 1.65 0 2.838-.855 2.838-2.029 0-1.018-.717-1.628-2.412-2.046l-1.695-.41c-2.404-.582-3.519-1.71-3.519-3.539 0-2.264 1.968-3.82 4.761-3.82 2.765 0 4.66 1.556 4.725 3.82h-1.977c-.12-1.31-1.198-2.1-2.775-2.1-1.578 0-2.657.8-2.657 1.964 0 .928.69 1.474 2.375 1.892l1.443.355c2.683.637 3.8 1.719 3.8 3.64 0 2.455-1.951 3.993-5.052 3.993-2.902 0-4.86-1.502-4.987-3.876h2.004zM102.045 16.754v2.266h1.815v1.554h-1.815v5.276c0 .82.364 1.202 1.161 1.202.2 0 .518-.028.644-.046v1.546c-.217.055-.652.091-1.087.091-1.932 0-2.685-.727-2.685-2.583v-5.486H98.69V19.02h1.388v-2.266h1.967zM111.965 23.804c0-2.065-.944-3.284-2.53-3.284-1.587 0-2.53 1.229-2.53 3.284 0 2.074.943 3.283 2.53 3.283 1.586 0 2.53-1.209 2.53-3.283m-7.055 0c0-3.011 1.767-4.903 4.525-4.903 2.766 0 4.525 1.892 4.525 4.903 0 3.02-1.75 4.904-4.525 4.904-2.774 0-4.525-1.885-4.525-4.904M115.575 19.02h1.867v1.628h.045c.3-1.082 1.17-1.73 2.295-1.73.281 0 .516.038.671.075v1.837c-.155-.065-.5-.119-.88-.119-1.26 0-2.04.855-2.04 2.202v5.676h-1.958v-9.57zM122.862 22.922h4.769c-.046-1.465-.98-2.429-2.34-2.429-1.351 0-2.33.983-2.43 2.429zm6.619 2.856c-.263 1.738-1.95 2.93-4.107 2.93-2.776 0-4.498-1.866-4.498-4.858 0-3.002 1.732-4.949 4.416-4.949 2.64 0 4.299 1.82 4.299 4.72v.674h-6.739v.118c0 1.638 1.026 2.711 2.567 2.711 1.087 0 1.941-.518 2.203-1.346h1.859z"/>
            </g>
        </g>
    </g>
</svg>
