<svg width="154" height="47" viewBox="0 0 154 47" xmlns="http://www.w3.org/2000/svg">
    <g transform="translate(0 .655)" fill="none" fill-rule="evenodd">
        <rect fill="#FFF" fill-rule="nonzero" width="154" height="46.345" rx="14"/>
        <g fill="#FF359C">
            <path d="M113.69 27.8h1.889V15.134h-1.888V27.8zm17.018-8.104-2.166 5.492h-.064l-2.248-5.492h-2.035l3.371 7.675-1.922 4.27h1.97l5.195-11.945h-2.1zm-10.715 6.665c-.618 0-1.482-.31-1.482-1.076 0-.977 1.076-1.353 2.004-1.353.83 0 1.221.18 1.725.424a2.291 2.291 0 0 1-2.247 2.005zm.228-6.942c-1.367 0-2.784.604-3.37 1.939l1.676.701c.359-.701 1.026-.929 1.727-.929.977 0 1.97.587 1.986 1.63v.13c-.342-.196-1.075-.488-1.97-.488-1.808 0-3.648.993-3.648 2.85 0 1.696 1.482 2.788 3.143 2.788 1.27 0 1.971-.57 2.41-1.24h.065v.979h1.825v-4.857c0-2.248-1.679-3.503-3.844-3.503zm-11.676 1.82h-2.687v-4.342h2.687c1.412 0 2.214 1.169 2.214 2.17 0 .982-.802 2.171-2.214 2.171zm-.049-6.106h-4.527V27.8h1.889V23h2.638c2.094 0 4.153-1.517 4.153-3.934 0-2.416-2.059-3.934-4.153-3.934zM83.81 26.363c-1.305 0-2.398-1.093-2.398-2.595 0-1.518 1.093-2.628 2.398-2.628 1.288 0 2.3 1.11 2.3 2.628 0 1.502-1.012 2.595-2.3 2.595zm2.169-5.957h-.065c-.424-.506-1.24-.964-2.267-.964-2.154 0-4.128 1.894-4.128 4.326 0 2.416 1.974 4.293 4.128 4.293 1.027 0 1.843-.457 2.267-.98h.065v.62c0 1.65-.881 2.53-2.3 2.53-1.158 0-1.876-.831-2.17-1.533l-1.647.685c.473 1.142 1.728 2.547 3.817 2.547 2.219 0 4.095-1.306 4.095-4.49v-7.737h-1.795v.703zm3.1 7.394h1.891V15.134h-1.89V27.8zm4.681-4.179c-.049-1.665 1.289-2.513 2.25-2.513.752 0 1.388.376 1.6.914l-3.85 1.6zm5.873-1.436c-.36-.963-1.452-2.743-3.687-2.743-2.218 0-4.062 1.747-4.062 4.31 0 2.416 1.827 4.31 4.274 4.31 1.973 0 3.115-1.208 3.59-1.91l-1.47-.98c-.49.718-1.157 1.191-2.12 1.191-.962 0-1.648-.44-2.087-1.306l5.757-2.383-.195-.49zm-45.876-1.42v1.828h4.371c-.13 1.028-.473 1.78-.994 2.301-.637.637-1.632 1.34-3.377 1.34-2.692 0-4.796-2.172-4.796-4.865s2.104-4.865 4.796-4.865c1.452 0 2.512.571 3.295 1.307l1.289-1.29c-1.094-1.045-2.545-1.845-4.584-1.845-3.688 0-6.787 3.004-6.787 6.693 0 3.688 3.1 6.692 6.787 6.692 1.99 0 3.49-.653 4.665-1.877 1.207-1.208 1.582-2.906 1.582-4.277 0-.423-.032-.816-.098-1.142h-6.149zm11.217 5.598c-1.304 0-2.43-1.077-2.43-2.61 0-1.552 1.126-2.613 2.43-2.613 1.305 0 2.43 1.06 2.43 2.612 0 1.534-1.125 2.611-2.43 2.611zm0-6.921c-2.382 0-4.323 1.813-4.323 4.31 0 2.481 1.941 4.31 4.323 4.31 2.382 0 4.323-1.829 4.323-4.31 0-2.497-1.94-4.31-4.323-4.31zm9.43 6.921c-1.305 0-2.43-1.077-2.43-2.61 0-1.552 1.125-2.613 2.43-2.613 1.306 0 2.43 1.06 2.43 2.612 0 1.534-1.124 2.611-2.43 2.611zm0-6.921c-2.381 0-4.322 1.813-4.322 4.31 0 2.481 1.941 4.31 4.322 4.31 2.382 0 4.323-1.829 4.323-4.31 0-2.497-1.941-4.31-4.323-4.31z"/>
            <g fill-rule="nonzero">
                <path d="M21.983 13.73v18.841c0 .234.033.435.092.596l10.01-10.016-10.009-10.016c-.06.163-.093.362-.093.595zM36.15 26.265l3.964-2.254c.903-.514.903-1.207 0-1.72l-3.964-2.254-3.11 3.114 3.11 3.114zM23.512 33.45l11.95-6.795-2.9-2.903-9.914 9.92c.236.036.53-.032.864-.222zM32.563 22.549l2.9-2.903-11.951-6.794c-.274-.157-.529-.232-.745-.232a.85.85 0 0 0-.119.008l9.915 9.921z"/>
            </g>
        </g>
    </g>
</svg>
