<svg xmlns="http://www.w3.org/2000/svg" width="102" height="36" viewBox="0 0 102 36">
    <g fill="none" fill-rule="evenodd">
        <path fill="#FFF" d="M17.755 16.977L22.521 16.977 22.521.482 17.755.482zM67.61 12.643c-2.116 0-3.832-1.733-3.832-3.871 0-2.139 1.716-3.872 3.831-3.872 2.116 0 3.832 1.733 3.832 3.872 0 2.138-1.716 3.871-3.832 3.871zm8.531-5.001C75.593 3.372 71.984.074 67.61.074c-4.753 0-8.606 3.894-8.606 8.698 0 4.803 3.853 8.697 8.606 8.697 1.875 0 3.608-.607 5.021-1.635l.25 1.635h4.767l-1.505-9.827zM37.052 8.772c0 2.138-1.715 3.871-3.831 3.871-2.116 0-3.831-1.733-3.831-3.871 0-2.139 1.715-3.872 3.831-3.872 2.116 0 3.831 1.733 3.831 3.871v.001zm0 18.618h-.002l.002.1c0 2.139-1.529 3.684-3.645 3.684s-3.644-1.545-3.644-3.683c0-2.139 1.528-3.684 3.644-3.684.034 0 .067.002.1.003v-.003h3.545v3.583zm4.776-18.618c0-4.804-3.854-8.698-8.607-8.698-4.753 0-8.607 3.894-8.607 8.698 0 4.803 3.854 8.697 8.607 8.697 1.377 0 2.677-.328 3.831-.909v2.421h-3.545v.003c-.033 0-.066-.003-.1-.003-4.753 0-8.42 3.706-8.42 8.51 0 4.803 3.667 8.509 8.42 8.509 4.754 0 8.42-3.706 8.42-8.51v-3.683h3.038l3.492-4.826h-6.53V8.771zM90.225 8.772c0 2.138-1.716 3.871-3.831 3.871-2.116 0-3.831-1.733-3.831-3.871 0-2.139 1.715-3.872 3.83-3.872 2.116 0 3.832 1.733 3.832 3.871v.001zm0 18.618h-.003l.003.1c0 2.139-1.529 3.684-3.645 3.684s-3.644-1.545-3.644-3.683c0-2.139 1.528-3.684 3.644-3.684.034 0 .067.002.1.003v-.003h3.545v3.583zM95 8.772C95 3.968 91.147.074 86.394.074c-4.754 0-8.607 3.894-8.607 8.698 0 4.803 3.853 8.697 8.607 8.697 1.377 0 2.677-.328 3.831-.909v2.421H86.68v.003c-.033 0-.066-.003-.1-.003-4.753 0-8.42 3.706-8.42 8.51 0 4.803 3.667 8.509 8.42 8.509 4.754 0 8.42-3.706 8.42-8.51v-3.683h6.995l-3.259-4.826H95V8.771z"/>
        <path fill="#FFF" d="M57.6 12.445H51.87l7.187-10.18-.001-.002c.125-.188.198-.414.198-.657 0-.652-.523-1.18-1.167-1.18H44.318v4.496h6.98l-7.253 10.275-.078.11c-.103.165-.164.36-.164.568 0 .589.472 1.066 1.055 1.066h15.79L57.6 12.445zM15.448 12.445H8.065l7.187-10.18v-.002c.125-.188.198-.414.198-.657 0-.652-.523-1.18-1.168-1.18H.514v4.496h6.981L.241 15.197l-.077.11c-.103.165-.164.36-.164.568 0 .589.472 1.066 1.054 1.066h14.394v-4.496z"/>
    </g>
</svg>
