<?xml version="1.0" encoding="utf-8"?>
<!-- Generator: Adobe Illustrator 24.2.1, SVG Export Plug-In . SVG Version: 6.00 Build 0)  -->
<svg version="1.1" id="Layer_1" xmlns="http://www.w3.org/2000/svg" xmlns:xlink="http://www.w3.org/1999/xlink" x="0px" y="0px"
	 viewBox="0 0 24 24" style="enable-background:new 0 0 24 24;" xml:space="preserve">
<style type="text/css">
	.st0{fill-rule:evenodd;clip-rule:evenodd;}
</style>
<g fill="#FAFAFA">
	<path d="M17,0H7C3.1,0,0,3.1,0,7v10c0,3.9,3.1,7,7,7h10c3.9,0,7-3.1,7-7V7C24,3.1,20.9,0,17,0z M21.5,17c0,2.5-2,4.5-4.5,4.5H7
		c-2.5,0-4.5-2-4.5-4.5V7c0-2.5,2-4.5,4.5-4.5h10c2.5,0,4.5,2,4.5,4.5V17z M11.9,6.4c-3,0-5.5,2.5-5.5,5.5c0,3,2.5,5.5,5.5,5.5
		s5.5-2.5,5.5-5.5C17.4,8.9,15,6.4,11.9,6.4z M11.9,14.9c-1.7,0-3-1.3-3-3c0-1.7,1.3-3,3-3s3,1.3,3,3C14.9,13.6,13.6,14.9,11.9,14.9
		z M18.9,5.4c0,0.8-0.7,1.5-1.5,1.5s-1.5-0.7-1.5-1.5s0.7-1.5,1.5-1.5S18.9,4.6,18.9,5.4z"/>
</g>
</svg>
