<?xml version="1.0" encoding="utf-8"?>
<!-- Generator: Adobe Illustrator 24.2.1, SVG Export Plug-In . SVG Version: 6.00 Build 0)  -->
<svg version="1.1" id="Layer_1" xmlns="http://www.w3.org/2000/svg" xmlns:xlink="http://www.w3.org/1999/xlink" x="0px" y="0px"
	 viewBox="0 0 24 24" style="enable-background:new 0 0 24 24;" xml:space="preserve">
<style type="text/css">
	.st0{fill-rule:evenodd;clip-rule:evenodd;}
</style>
<g fill="#FAFAFA">
	<path d="M3.2,11.4h3.9v3.9H3.2c-0.6,0-1.1-0.2-1.6-0.5C1.2,14.4,1,13.9,1,13.3c0-0.6,0.2-1,0.6-1.4C2,11.6,2.6,11.4,3.2,11.4z
		 M21.4,13.1c-1.2,1.4-2.9,2.2-5.1,2.2h-2.6v-3.9h1.4c1.1,0,1.9-0.3,2.5-0.9c0.5-0.5,0.8-1.3,0.8-2.2c0-0.9-0.4-1.5-0.9-2.1
		c-0.6-0.5-1.3-0.8-2.1-0.8h-2.8v14.4c0,0.7-0.2,1.3-0.6,1.8c-0.4,0.5-0.9,0.7-1.6,0.7c-0.7,0-1.2-0.2-1.6-0.7
		c-0.4-0.5-0.6-1.1-0.6-1.8V4.4c0-0.9,0.2-1.5,0.7-2c0.5-0.5,1.2-0.7,2-0.7h4.9c2.3,0,4,0.6,5.2,1.7c0.4,0.4,0.8,0.9,1.1,1.4
		c0.3,0.5,0.6,1.1,0.8,1.7C22.9,7.1,23,7.7,23,8.3C23,10.3,22.5,11.9,21.4,13.1z"/>
</g>
</svg>
